<svg xmlns="http://www.w3.org/2000/svg" version="1.0" width="995.000000pt" height="266.000000pt" viewBox="0 0 995.000000 266.000000" preserveAspectRatio="xMidYMid meet">

<g transform="translate(0.000000,266.000000) scale(0.100000,-0.100000)" fill="#f9f9f9" stroke="none">
<path d="M3763 2559 c-13 -5 -23 -13 -23 -19 0 -5 -6 -10 -13 -10 -8 0 -36 -16 -63 -35 -27 -19 -54 -35 -61 -35 -6 0 -13 -4 -15 -8 -4 -11 -99 -68 -126 -76 -12 -4 -22 -11 -22 -16 0 -5 -10 -12 -22 -16 -12 -3 -39 -19 -61 -35 -22 -16 -46 -29 -54 -29 -7 0 -13 -4 -13 -8 0 -5 -10 -14 -22 -21 -27 -14 -48 -27 -104 -63 -23 -14 -56 -35 -75 -45 -19 -10 -52 -30 -74 -44 -22 -14 -47 -29 -55 -32 -8 -4 -31 -17 -52 -30 -20 -12 -77 -47 -127 -77 -50 -30 -91 -58 -91 -62 0 -13 46 -9 76 7 16 8 38 15 49 15 11 1 31 7 45 15 14 8 35 14 46 15 12 0 35 7 50 15 16 8 38 15 49 15 11 0 29 7 39 15 11 8 30 15 42 15 13 0 40 12 61 26 21 14 47 30 58 35 29 14 56 31 95 59 37 26 65 45 90 57 8 4 43 26 78 50 35 24 65 43 67 43 2 0 26 15 54 33 27 17 86 55 130 82 l81 50 0 57 c0 63 -4 70 -37 57z" fill="#f9f9f9"/>
<path d="M4330 2365 c-22 -12 -82 -40 -220 -102 -19 -9 -42 -20 -50 -25 -8 -4 -22 -11 -30 -14 -23 -9 -67 -29 -172 -78 -54 -25 -104 -46 -112 -46 -7 0 -19 -7 -26 -15 -7 -8 -20 -15 -29 -15 -10 0 -26 -7 -37 -15 -10 -8 -26 -15 -35 -15 -9 0 -22 -7 -29 -15 -7 -8 -21 -15 -31 -15 -9 0 -24 -7 -33 -15 -8 -8 -20 -15 -28 -15 -7 0 -40 -13 -73 -29 -33 -16 -96 -46 -140 -66 -44 -20 -107 -50 -140 -65 -33 -15 -85 -39 -115 -53 -30 -13 -86 -39 -125 -57 -38 -17 -90 -41 -115 -52 -25 -12 -72 -33 -105 -49 -33 -15 -89 -41 -125 -57 -150 -67 -181 -84 -186 -97 -8 -20 64 -95 92 -95 23 0 112 31 146 50 10 6 23 10 30 10 7 1 31 9 53 20 22 11 45 19 52 20 6 0 24 6 40 14 52 26 104 46 118 46 7 0 26 6 42 14 33 16 58 27 133 56 30 12 70 28 88 36 18 8 39 14 47 14 7 0 26 6 42 14 15 8 48 22 73 31 25 9 58 23 73 31 16 8 36 14 46 14 9 0 26 7 37 15 10 8 28 15 40 15 11 0 29 7 40 15 10 8 25 15 32 15 8 0 28 6 45 14 18 8 59 24 92 37 33 13 64 27 70 31 5 4 17 8 26 8 15 0 59 17 146 56 17 8 35 14 41 14 5 0 23 7 38 15 16 8 37 15 46 15 9 0 19 4 23 9 3 5 20 13 37 17 18 3 39 10 48 14 64 34 103 50 120 50 10 0 22 5 25 10 8 12 39 13 63 1 9 -4 33 -15 52 -24 19 -8 71 -32 115 -52 104 -48 130 -59 190 -85 57 -25 109 -49 247 -114 53 -25 100 -46 105 -46 4 0 37 -14 73 -31 36 -17 81 -38 100 -47 19 -8 42 -19 50 -24 8 -4 22 -11 30 -14 8 -3 43 -19 77 -35 35 -16 65 -29 69 -29 3 0 38 -15 77 -34 118 -55 144 -66 156 -66 6 0 11 -4 11 -9 0 -5 13 -12 30 -16 16 -4 32 -11 35 -16 8 -12 55 -12 55 0 0 5 -9 13 -21 16 -11 4 -48 26 -82 49 -34 23 -69 45 -77 49 -22 11 -48 28 -118 75 -35 23 -65 42 -67 42 -2 0 -32 19 -67 42 -35 24 -71 47 -80 53 -85 50 -164 100 -168 105 -4 6 -101 66 -168 105 -10 6 -33 21 -52 35 -45 32 -71 48 -92 56 -10 3 -18 10 -18 15 0 5 -10 13 -22 18 -13 5 -40 21 -61 35 -21 14 -40 26 -43 26 -2 0 -23 14 -46 30 -22 17 -47 30 -53 30 -7 0 -15 7 -19 15 -3 8 -12 15 -20 15 -8 0 -21 6 -28 13 -7 7 -46 33 -86 56 -40 24 -75 47 -78 52 -8 14 -66 10 -94 -6z" fill="#f9f9f9"/>
<path d="M3640 2279 c-47 -32 -88 -59 -92 -59 -4 0 -37 -20 -74 -45 -36 -25 -67 -45 -69 -45 -2 0 -21 -12 -42 -26 -21 -14 -48 -30 -60 -35 -13 -5 -23 -13 -23 -18 0 -5 -11 -12 -25 -15 -14 -4 -25 -11 -25 -16 0 -16 50 -12 66 5 9 8 30 15 47 15 18 0 41 7 51 15 26 20 39 19 66 -5 12 -11 25 -18 29 -17 3 2 38 18 76 36 39 18 83 39 98 47 16 8 34 14 41 14 7 0 21 8 30 19 14 15 16 35 14 101 -2 46 -7 84 -13 86 -5 1 -48 -24 -95 -57z" fill="#f9f9f9"/>
<path d="M1586 2133 c-19 -21 -53 -63 -77 -93 -24 -30 -60 -73 -80 -95 -20 -22 -74 -85 -120 -140 -45 -55 -89 -106 -96 -113 -7 -7 -13 -16 -13 -20 0 -4 -20 -28 -45 -54 -24 -26 -80 -92 -124 -145 -43 -54 -90 -110 -103 -124 -39 -42 -98 -116 -98 -123 0 -19 27 1 78 56 31 34 93 100 137 147 72 76 121 129 290 305 158 165 213 225 242 259 18 20 41 37 51 37 18 0 87 -67 157 -152 17 -20 65 -74 107 -120 41 -46 91 -101 109 -123 47 -56 102 -117 229 -255 8 -9 36 -40 61 -70 26 -30 66 -76 90 -102 24 -26 58 -63 74 -83 17 -21 35 -42 40 -49 325 -357 314 -342 273 -370 -17 -12 -50 -16 -146 -16 -94 0 -123 -3 -120 -12 4 -10 56 -14 206 -16 111 -1 202 1 202 5 0 5 -21 31 -45 58 -25 28 -67 77 -92 110 -25 33 -59 72 -75 87 -15 15 -28 29 -28 32 0 3 -20 27 -45 53 -24 26 -45 53 -45 58 0 6 -12 22 -28 35 -15 14 -45 47 -67 75 -22 27 -47 56 -55 65 -8 9 -33 38 -55 65 -64 79 -113 136 -168 199 -29 32 -69 82 -91 110 -21 28 -41 53 -45 56 -6 4 -128 148 -150 176 -5 5 -38 45 -75 86 -36 42 -66 79 -66 82 0 3 -15 21 -32 39 -18 19 -49 53 -68 75 -19 23 -40 42 -47 42 -7 0 -28 -17 -47 -37z" fill="#f9f9f9"/>
<path d="M3290 1975 c-10 -12 -9 -16 3 -21 17 -6 37 2 37 16 0 15 -29 19 -40 5z" fill="#f9f9f9"/>
<path d="M1579 1889 c-54 -63 -64 -74 -114 -135 -35 -43 -81 -95 -138 -159 -10 -11 -28 -33 -40 -49 -23 -30 -147 -177 -157 -186 -3 -3 -28 -32 -54 -65 -26 -33 -69 -83 -95 -110 -25 -28 -64 -73 -86 -100 -21 -28 -49 -60 -62 -72 -13 -12 -23 -27 -23 -33 0 -12 27 -14 34 -1 5 7 121 89 201 141 97 64 155 105 155 112 0 4 6 8 14 8 12 0 60 33 158 109 14 12 31 21 37 21 6 0 11 4 11 9 0 6 11 16 25 23 13 7 58 37 100 66 41 28 81 52 88 52 7 0 19 -8 28 -17 119 -138 182 -209 233 -263 33 -36 76 -83 95 -105 19 -22 69 -78 112 -125 43 -47 86 -95 96 -106 56 -66 122 -133 141 -143 22 -12 221 -15 284 -5 44 8 46 4 -57 119 -38 43 -85 94 -102 114 -18 20 -33 39 -33 43 0 3 -12 19 -27 35 -16 15 -45 48 -67 73 -43 50 -139 159 -174 198 -12 14 -41 48 -65 75 -23 28 -47 55 -52 61 -14 15 -131 151 -182 212 -24 28 -53 62 -65 75 -54 59 -134 152 -141 165 -14 24 -33 16 -78 -37z" fill="#f9f9f9"/>
<path d="M4361 1820 l-134 -5 -1 -67 c-1 -49 2 -69 12 -73 26 -10 261 -5 267 5 10 16 9 130 -1 138 -5 4 -69 5 -143 2z" fill="#f9f9f9"/>
<path d="M4587 1813 c-4 -3 -7 -35 -7 -69 l0 -63 53 -6 c39 -4 226 -1 233 4 1 1 4 24 6 52 9 92 15 89 -141 89 -76 0 -141 -3 -144 -7z" fill="#f9f9f9"/>
<path d="M3685 1746 c-16 -8 -50 -22 -75 -31 -25 -9 -60 -23 -78 -31 -18 -8 -39 -14 -46 -14 -22 0 -26 -59 -26 -437 0 -315 2 -364 16 -377 13 -14 51 -16 259 -16 134 0 250 3 259 6 41 16 7 24 -97 24 -75 0 -119 4 -130 13 -15 11 -17 54 -19 442 -3 472 0 449 -63 421z" fill="#f9f9f9"/>
<path d="M4243 1634 c-9 -4 -13 -28 -13 -69 0 -52 3 -64 18 -68 9 -2 71 -4 137 -3 l120 1 0 70 0 70 -125 2 c-69 1 -131 -1 -137 -3z" fill="#f9f9f9"/>
<path d="M4577 1633 c-8 -13 -6 -119 2 -132 5 -8 48 -11 152 -9 l144 3 0 70 0 70 -147 3 c-80 1 -149 -1 -151 -5z" fill="#f9f9f9"/>
<path d="M3296 1594 c-14 -13 -16 -60 -16 -364 l0 -348 -22 -6 c-13 -3 -73 -6 -135 -6 l-112 0 -3 -27 c-2 -16 -2 -61 0 -101 5 -100 25 -91 32 14 l5 79 160 5 160 5 5 300 c3 165 4 337 2 383 l-4 82 -28 0 c-16 0 -36 -7 -44 -16z" fill="#f9f9f9"/>
<path d="M5900 1410 c0 -5 5 -10 11 -10 5 0 7 5 4 10 -3 6 -8 10 -11 10 -2 0 -4 -4 -4 -10z" fill="#f9f9f9"/>
<path d="M4163 1302 c-29 -2 -53 -8 -53 -14 0 -5 13 -29 29 -53 16 -24 32 -53 36 -64 3 -12 10 -21 14 -21 4 0 13 -11 19 -25 l12 -25 410 0 411 0 24 -25 c32 -31 34 -94 4 -136 l-20 -29 -393 0 c-299 0 -396 -3 -409 -13 -16 -11 -17 -32 -15 -197 l3 -185 105 0 105 0 3 110 c1 60 6 113 10 117 4 4 148 8 320 8 283 1 318 3 374 21 73 23 99 45 130 108 30 61 34 231 6 271 -10 13 -18 31 -18 39 0 16 -66 81 -84 81 -6 0 -18 6 -24 13 -10 9 -125 13 -480 17 -257 3 -491 4 -519 2z" fill="#f9f9f9"/>
<path d="M6657 1298 c-12 -8 7 -27 28 -28 40 -1 105 -137 78 -164 -7 -7 -33 -76 -33 -88 0 -8 34 19 72 55 10 9 23 17 28 17 6 0 10 4 10 8 0 5 37 40 81 78 45 38 92 78 105 89 13 11 24 25 24 30 0 12 -376 14 -393 3z m309 -30 c4 -6 -3 -19 -17 -29 -13 -9 -46 -38 -73 -63 -47 -45 -66 -50 -66 -20 0 8 -11 35 -25 60 -14 25 -23 50 -20 55 9 14 192 12 201 -3z" fill="#f9f9f9"/>
<path d="M5347 1293 c-3 -5 22 -50 56 -100 l61 -93 406 0 c473 0 450 5 450 -90 0 -48 -4 -63 -22 -80 -21 -19 -33 -20 -419 -20 -325 0 -399 -2 -408 -14 -8 -9 -11 -70 -9 -197 l3 -184 110 0 110 0 2 95 c5 156 -20 140 216 140 l202 0 80 -85 80 -86 113 -3 c62 -1 115 1 117 5 3 3 -21 33 -53 65 -88 90 -88 91 -67 114 10 11 26 20 35 20 24 0 80 44 103 82 18 29 21 49 22 158 0 107 -3 129 -19 155 -35 53 -70 86 -115 106 -41 18 -71 19 -547 19 -276 0 -505 -3 -507 -7z" fill="#f9f9f9"/>
<path d="M7281 1266 c-32 -33 -81 -149 -100 -236 -4 -19 -12 -44 -18 -55 -13 -26 -32 -79 -45 -130 -6 -22 -14 -44 -18 -50 -4 -5 -11 -26 -15 -45 -4 -19 -11 -41 -15 -50 -15 -33 -39 -115 -34 -119 3 -3 39 -5 81 -5 85 1 95 8 114 79 6 22 17 52 25 67 8 14 14 39 14 55 0 15 7 37 15 47 8 11 15 30 15 43 0 13 6 34 14 46 8 12 17 38 20 58 8 43 27 63 54 54 11 -3 46 -49 78 -103 31 -53 60 -99 63 -102 4 -3 12 -16 19 -30 7 -14 21 -38 32 -55 20 -30 47 -75 78 -130 28 -49 53 -64 102 -65 40 0 50 5 83 39 20 22 37 42 37 46 0 4 14 24 30 45 17 21 30 40 30 43 0 4 12 23 26 44 14 21 30 47 35 58 10 22 46 82 94 158 16 26 38 50 48 53 22 7 47 -12 47 -35 0 -10 7 -26 15 -37 8 -10 15 -33 15 -50 0 -16 7 -39 15 -50 8 -10 15 -30 15 -44 0 -14 7 -36 15 -50 8 -14 14 -33 15 -43 0 -11 6 -33 14 -50 8 -18 17 -44 20 -59 6 -26 8 -27 87 -30 61 -2 83 0 87 10 3 8 -7 48 -22 90 -15 43 -30 88 -33 102 -2 14 -10 39 -18 55 -20 48 -36 97 -45 138 -4 21 -13 44 -19 50 -6 6 -11 23 -11 37 0 14 -7 35 -15 46 -8 10 -15 29 -15 41 0 33 -38 99 -72 128 -37 31 -120 35 -154 6 -20 -16 -174 -236 -174 -248 0 -3 -13 -22 -30 -43 -16 -21 -30 -41 -30 -45 0 -4 -13 -24 -28 -44 -16 -20 -32 -44 -35 -53 -12 -32 -40 -15 -77 47 -13 22 -27 42 -30 45 -3 3 -24 34 -45 70 -22 36 -45 71 -52 78 -7 7 -13 19 -13 27 0 7 -4 15 -8 17 -4 2 -19 21 -32 43 -31 51 -39 61 -75 96 -25 25 -37 29 -85 29 -51 0 -59 -3 -89 -34z" fill="#f9f9f9"/>
<path d="M8985 1285 c-16 -8 -43 -14 -60 -15 -16 0 -39 -7 -49 -15 -11 -8 -28 -15 -39 -15 -10 0 -39 -13 -64 -30 -24 -16 -48 -30 -52 -30 -13 0 -131 -129 -131 -143 0 -7 -8 -24 -17 -37 -26 -37 -25 -173 2 -226 46 -90 164 -176 295 -214 25 -8 112 -15 197 -17 120 -3 159 -1 188 12 21 8 47 15 59 15 12 0 30 6 41 14 11 7 31 17 45 21 63 20 200 129 200 160 0 12 -23 15 -126 15 l-126 0 -39 -40 c-63 -65 -104 -80 -212 -80 -72 0 -98 4 -107 15 -7 8 -19 15 -26 15 -25 0 -102 80 -109 111 -4 17 -4 33 -1 36 3 3 27 7 53 10 26 2 80 10 120 18 40 8 96 15 126 15 30 0 67 4 83 10 16 5 72 14 124 20 52 5 140 15 195 22 l100 13 -1 48 c0 27 -5 52 -11 55 -6 4 -13 16 -17 28 -10 33 -98 117 -147 140 -134 66 -179 77 -334 80 -95 2 -138 -1 -160 -11z m187 -93 c48 -12 81 -28 114 -56 45 -38 90 -114 76 -128 -9 -9 -134 -26 -272 -38 -58 -5 -123 -14 -146 -20 -62 -17 -108 -10 -112 18 -6 43 21 96 77 151 46 46 67 59 116 72 78 21 70 21 147 1z" fill="#f9f9f9"/>
<path d="M797 1190 c-26 -31 -20 -45 8 -19 13 13 25 27 25 32 0 13 -15 7 -33 -13z" fill="#f9f9f9"/>
<path d="M1780 1195 c-14 -7 -52 -26 -85 -40 -123 -55 -150 -68 -165 -76 -8 -5 -22 -12 -30 -15 -51 -21 -182 -80 -275 -124 -86 -41 -196 -90 -200 -90 -2 0 -50 -22 -107 -49 -57 -27 -126 -59 -155 -72 -28 -13 -49 -27 -47 -31 9 -13 52 -9 68 7 8 8 24 15 36 15 12 0 34 6 48 14 15 8 45 21 67 29 22 8 73 29 114 46 40 17 80 31 87 31 8 0 31 9 51 20 21 11 43 20 50 20 8 0 21 4 31 9 9 5 44 20 77 32 33 12 74 28 92 35 17 8 37 14 45 14 8 0 18 4 24 8 5 4 36 18 69 31 33 12 78 30 100 38 22 8 52 21 67 29 14 8 34 14 45 14 10 0 27 7 37 15 11 8 30 15 42 15 35 0 36 13 3 53 -33 40 -50 44 -89 22z" fill="#f9f9f9"/>
<path d="M750 1134 c0 -8 5 -12 10 -9 6 3 10 10 10 16 0 5 -4 9 -10 9 -5 0 -10 -7 -10 -16z" fill="#f9f9f9"/>
<path d="M720 1099 c0 -5 5 -7 10 -4 6 3 10 8 10 11 0 2 -4 4 -10 4 -5 0 -10 -5 -10 -11z" fill="#f9f9f9"/>
<path d="M6890 1038 c-58 -45 -93 -75 -123 -102 -18 -15 -42 -35 -55 -43 -22 -15 -22 -19 -20 -167 l3 -151 114 0 c73 0 115 4 118 11 10 25 8 464 -2 468 -6 2 -22 -5 -35 -16z" fill="#f9f9f9"/>
<path d="M780 950 c0 -5 5 -10 10 -10 6 0 10 5 10 10 0 6 -4 10 -10 10 -5 0 -10 -4 -10 -10z" fill="#f9f9f9"/>
<path d="M3134 766 c-3 -7 -4 -35 -2 -62 l3 -49 65 -7 c36 -4 233 -7 437 -7 l373 0 6 23 c3 12 4 42 2 67 l-3 44 -438 3 c-366 2 -438 0 -443 -12z" fill="#f9f9f9"/>
<path d="M650 674 c0 -11 8 -14 27 -12 39 4 42 28 4 28 -21 0 -31 -5 -31 -16z" fill="#f9f9f9"/>
<path d="M591 650 c-19 -11 5 -23 25 -12 14 8 14 10 2 15 -8 3 -21 2 -27 -3z" fill="#f9f9f9"/>
<path d="M528 613 c7 -3 16 -2 19 1 4 3 -2 6 -13 5 -11 0 -14 -3 -6 -6z" fill="#f9f9f9"/>
<path d="M374 320 c-12 -5 -32 -25 -44 -45 -29 -47 -24 -110 14 -160 26 -34 29 -35 97 -35 61 0 73 3 90 23 10 12 18 32 19 45 0 28 -32 30 -67 2 -33 -26 -58 -25 -77 2 -30 43 -10 128 30 128 8 0 28 -7 44 -15 22 -12 35 -13 57 -4 l28 10 -33 30 c-27 24 -40 29 -85 28 -28 0 -62 -4 -73 -9z" fill="#f9f9f9"/>
<path d="M644 307 c-59 -50 -64 -142 -9 -201 21 -23 32 -26 92 -27 66 -1 68 -1 100 37 28 32 33 45 33 89 0 41 -5 57 -28 85 -26 31 -34 34 -93 38 -58 4 -68 1 -95 -21z m119 -44 c25 -29 30 -68 13 -102 -17 -33 -42 -39 -77 -21 -26 15 -28 114 -1 129 25 15 47 13 65 -6z" fill="#f9f9f9"/>
<path d="M925 320 c-9 -15 -10 -214 -1 -228 4 -7 18 -12 32 -12 20 0 24 5 24 29 0 38 11 91 19 91 3 -1 24 -28 45 -61 37 -56 41 -60 74 -57 l35 3 2 113 c1 100 -1 114 -17 123 -33 18 -58 -6 -58 -56 0 -48 -23 -64 -35 -25 -3 11 -11 20 -16 20 -5 0 -9 6 -9 14 0 33 -79 71 -95 46z" fill="#f9f9f9"/>
<path d="M1253 321 c-11 -5 -24 -23 -27 -39 -8 -34 8 -82 27 -82 8 0 36 -9 61 -21 34 -15 46 -25 42 -36 -3 -8 -6 -17 -6 -19 0 -13 -48 -1 -63 16 -24 29 -67 27 -67 -2 1 -47 21 -58 103 -58 l75 0 22 35 c14 23 20 44 16 58 -8 30 -50 58 -96 64 -26 4 -40 11 -43 24 -3 10 -2 20 1 23 12 12 50 5 56 -10 4 -10 15 -14 33 -12 29 3 39 23 24 47 -10 16 -127 25 -158 12z" fill="#f9f9f9"/>
<path d="M1476 321 c-11 -18 6 -41 30 -41 33 0 45 -35 42 -124 l-3 -71 40 0 40 0 2 85 c2 46 5 90 7 96 2 6 18 14 35 17 33 7 42 31 15 41 -25 10 -202 7 -208 -3z" fill="#f9f9f9"/>
<path d="M1755 308 c-3 -13 -5 -68 -3 -123 l3 -100 30 0 c28 0 30 3 35 40 4 31 10 41 25 43 16 2 26 -8 43 -43 20 -42 24 -45 60 -45 21 0 41 3 45 6 3 3 -10 28 -29 55 -33 47 -33 49 -14 59 16 8 20 21 20 61 0 44 -3 51 -26 59 -14 6 -61 10 -104 10 -74 0 -80 -2 -85 -22z m140 -48 c0 -19 -6 -26 -25 -28 -39 -4 -55 11 -40 37 17 32 65 26 65 -9z" fill="#f9f9f9"/>
<path d="M2037 323 c-4 -3 -7 -47 -7 -97 0 -84 2 -92 27 -118 24 -26 33 -28 98 -28 68 0 72 1 94 31 20 27 23 44 24 117 0 70 -3 88 -16 96 -12 8 -22 8 -34 0 -14 -9 -19 -29 -23 -90 -6 -90 -12 -104 -45 -104 -38 0 -55 35 -55 116 0 56 -3 73 -16 78 -20 8 -39 8 -47 -1z" fill="#f9f9f9"/>
<path d="M2390 323 c-42 -17 -60 -53 -60 -117 0 -53 4 -67 26 -94 25 -30 31 -32 95 -32 58 0 71 3 89 22 11 13 19 32 18 43 -4 27 -40 31 -63 5 -21 -23 -52 -25 -78 -6 -14 11 -17 25 -15 61 2 38 8 49 30 63 23 13 31 14 51 3 26 -14 69 -12 73 4 2 6 -3 19 -11 30 -12 15 -29 20 -78 22 -34 1 -69 0 -77 -4z" fill="#f9f9f9"/>
<path d="M2611 316 c-14 -17 2 -32 39 -38 24 -3 25 -6 30 -98 l5 -95 38 -3 37 -3 0 85 c0 100 5 116 35 116 31 0 54 28 34 41 -24 15 -205 11 -218 -5z" fill="#f9f9f9"/>
<path d="M2894 318 c-10 -16 -13 -213 -4 -228 4 -6 20 -10 36 -8 l29 3 3 109 c3 113 -4 136 -39 136 -10 0 -21 -6 -25 -12z" fill="#f9f9f9"/>
<path d="M3085 321 c-29 -13 -51 -41 -65 -84 -10 -32 -9 -44 4 -77 27 -68 46 -80 125 -80 66 0 70 1 100 35 26 30 31 44 31 88 0 43 -5 59 -28 87 -26 30 -34 34 -88 37 -32 1 -68 -1 -79 -6z m92 -56 c29 -20 36 -58 19 -100 -16 -37 -39 -45 -77 -25 -26 15 -28 114 -1 129 23 14 34 13 59 -4z" fill="#f9f9f9"/>
<path d="M3353 323 c-10 -3 -13 -38 -13 -124 l0 -120 33 3 c32 3 32 4 35 61 2 31 7 57 11 57 5 0 26 -27 47 -60 36 -56 41 -60 76 -60 l38 0 0 119 c0 112 -1 119 -21 124 -38 10 -49 -2 -49 -54 0 -42 -3 -49 -20 -49 -11 0 -20 4 -20 10 0 5 -12 26 -26 47 -31 46 -58 60 -91 46z" fill="#f9f9f9"/>
<path d="M3837 318 c-9 -7 -30 -49 -45 -93 -15 -44 -34 -90 -41 -103 -6 -12 -9 -27 -6 -32 10 -17 55 -11 77 10 27 25 85 24 102 -2 7 -11 23 -18 44 -18 33 0 33 1 27 32 -11 55 -16 68 -26 68 -5 0 -9 12 -9 28 0 15 -6 36 -14 47 -7 11 -16 32 -20 48 -5 23 -12 27 -39 27 -18 0 -41 -6 -50 -12z m57 -103 c8 -32 1 -45 -24 -45 -28 0 -34 18 -16 45 21 32 32 32 40 0z" fill="#f9f9f9"/>
<path d="M4057 323 c-4 -3 -7 -60 -7 -125 l0 -119 33 3 c32 3 32 4 32 55 0 28 3 54 6 58 8 7 72 -70 82 -97 5 -13 17 -18 46 -18 49 0 52 8 50 127 -2 101 -11 126 -42 121 -18 -2 -22 -10 -25 -48 -4 -67 -8 -73 -32 -58 -11 7 -22 20 -25 28 -10 31 -64 80 -88 80 -13 0 -27 -3 -30 -7z" fill="#f9f9f9"/>
<path d="M4363 314 c-5 -11 -8 -66 -8 -124 l1 -105 91 -3 c88 -3 92 -2 111 23 27 34 37 104 23 148 -19 58 -43 71 -131 75 -68 4 -79 2 -87 -14z m136 -58 c7 -8 11 -36 9 -62 -3 -42 -6 -49 -29 -55 -15 -3 -32 -3 -39 1 -13 8 -22 82 -13 113 5 21 55 23 72 3z" fill="#f9f9f9"/>
<path d="M4753 314 c-7 -19 5 -31 37 -36 24 -3 25 -6 30 -98 l5 -95 39 0 40 0 1 85 c0 91 6 110 34 110 10 0 24 7 32 16 21 26 -6 34 -114 34 -79 0 -99 -3 -104 -16z" fill="#f9f9f9"/>
<path d="M5038 324 c-5 -4 -8 -61 -8 -126 l0 -119 33 3 c30 3 32 6 35 46 4 58 31 57 66 -3 24 -41 30 -45 65 -45 21 0 40 3 44 6 3 3 -9 28 -28 54 -33 47 -33 48 -14 66 12 11 19 30 19 53 0 60 -9 66 -112 69 -51 2 -96 0 -100 -4z m127 -48 c27 -19 13 -46 -25 -46 -32 0 -47 18 -36 45 7 19 36 19 61 1z" fill="#f9f9f9"/>
<path d="M5383 323 c-7 -2 -15 -20 -19 -39 -3 -19 -10 -37 -15 -40 -5 -3 -9 -13 -9 -22 0 -9 -7 -30 -15 -45 -8 -15 -17 -43 -21 -62 -6 -33 -5 -35 23 -35 16 0 36 9 46 20 9 11 29 20 46 20 15 0 40 -9 54 -20 14 -11 37 -20 51 -20 30 0 34 21 12 72 -8 18 -21 49 -30 70 -9 20 -16 42 -16 50 0 37 -66 68 -107 51z m67 -133 c0 -13 -7 -20 -19 -20 -26 0 -34 14 -26 50 6 28 7 28 26 9 10 -10 19 -28 19 -39z" fill="#f9f9f9"/>
<path d="M5618 320 c-15 -9 -17 -26 -14 -123 l2 -112 86 -3 c85 -3 86 -3 112 28 22 27 26 41 26 95 0 53 -4 69 -24 92 -21 25 -31 28 -97 30 -41 2 -82 -1 -91 -7z m117 -56 c20 -13 25 -25 25 -59 0 -46 -10 -60 -53 -70 -31 -8 -31 -8 -27 75 3 77 10 84 55 54z" fill="#f9f9f9"/>
<path d="M5897 323 c-4 -3 -7 -60 -7 -125 l0 -119 33 3 32 3 2 110 c1 66 -2 114 -9 122 -11 14 -40 17 -51 6z" fill="#f9f9f9"/>
<path d="M6035 320 c-12 -19 -12 -210 0 -227 6 -8 22 -13 36 -11 19 2 24 9 25 33 2 64 4 75 19 75 8 0 15 -5 15 -11 0 -7 16 -32 36 -56 31 -37 41 -44 68 -41 l31 3 0 105 c1 114 -6 140 -35 140 -29 0 -33 -11 -39 -102 -1 -25 -16 -22 -29 6 -19 43 -73 96 -97 96 -13 0 -27 -5 -30 -10z" fill="#f9f9f9"/>
<path d="M6377 310 c-55 -44 -70 -104 -41 -163 31 -61 41 -67 117 -67 90 0 137 25 137 73 0 48 -12 58 -66 60 -43 2 -49 -1 -52 -20 -2 -14 3 -23 18 -28 30 -9 7 -35 -31 -35 -40 0 -64 38 -56 88 8 44 32 66 67 57 41 -11 93 -11 97 0 2 6 -3 19 -11 30 -11 15 -29 20 -82 23 -59 3 -73 1 -97 -18z" fill="#f9f9f9"/>
<path d="M6814 321 c-78 -34 -86 -170 -14 -228 8 -7 45 -13 81 -13 57 0 69 3 88 24 13 13 21 32 19 43 -4 23 -48 30 -63 10 -6 -9 -23 -19 -37 -22 -47 -12 -81 50 -56 101 20 42 41 51 80 33 37 -16 78 -14 78 4 0 7 -10 21 -22 32 -26 21 -119 31 -154 16z" fill="#f9f9f9"/>
<path d="M7105 321 c-45 -19 -60 -49 -60 -121 0 -62 3 -71 28 -94 24 -23 37 -26 96 -26 63 0 69 2 99 33 29 29 32 39 32 91 0 53 -3 61 -34 92 -30 30 -40 34 -87 33 -30 0 -63 -4 -74 -8z m104 -67 c27 -34 27 -74 1 -102 -26 -28 -54 -28 -81 -1 -17 17 -20 29 -16 62 9 67 59 88 96 41z" fill="#f9f9f9"/>
<path d="M7368 324 c-5 -4 -8 -61 -8 -126 l0 -118 29 0 c32 0 47 24 37 57 -3 10 -2 23 2 29 9 15 52 -1 52 -19 0 -31 41 -67 75 -67 19 0 36 3 39 8 2 4 -9 26 -25 50 -34 49 -34 51 -14 66 23 16 29 77 12 101 -13 17 -29 21 -104 23 -48 2 -91 0 -95 -4z m127 -50 c23 -23 14 -38 -25 -42 -41 -4 -56 9 -41 37 14 25 43 27 66 5z" fill="#f9f9f9"/>
<path d="M7642 313 c-5 -10 -8 -56 -7 -103 4 -145 0 -132 43 -128 30 2 37 7 35 23 -2 11 0 30 2 43 5 19 12 22 48 22 58 0 87 30 87 88 0 58 -23 72 -122 72 -63 0 -79 -3 -86 -17z m128 -38 c26 -31 -18 -71 -47 -43 -12 12 -13 20 -4 37 14 25 34 27 51 6z" fill="#f9f9f9"/>
<path d="M7960 323 c-28 -11 -48 -38 -61 -81 -14 -50 -2 -100 34 -139 17 -19 31 -23 87 -23 41 0 73 5 86 15 28 19 54 75 54 115 0 41 -35 99 -67 111 -26 10 -109 11 -133 2z m93 -56 c26 -19 37 -67 21 -98 -16 -31 -38 -42 -68 -33 -29 9 -36 22 -36 71 0 32 5 46 22 57 27 19 39 20 61 3z" fill="#f9f9f9"/>
<path d="M8223 319 c-7 -9 -11 -55 -10 -124 l2 -110 32 -3 c31 -3 32 -2 35 40 2 35 7 44 24 46 17 2 26 -7 43 -41 l22 -45 90 0 c77 0 91 3 100 19 13 26 70 25 94 -1 24 -27 90 -29 82 -2 -17 55 -47 131 -73 187 -16 33 -25 41 -52 43 -44 4 -56 -7 -77 -76 -10 -31 -21 -61 -25 -67 -5 -5 -12 -26 -17 -45 -12 -46 -46 -53 -62 -13 -6 15 -16 36 -23 46 -11 15 -10 20 7 33 23 17 27 86 7 106 -18 18 -185 24 -199 7z m133 -50 c16 -17 16 -22 4 -29 -22 -14 -68 -12 -73 3 -7 19 12 47 32 47 10 0 26 -9 37 -21z m264 -50 c14 -25 6 -49 -14 -49 -21 0 -28 15 -20 45 8 30 20 32 34 4z" fill="#f9f9f9"/>
<path d="M8744 315 c-8 -21 4 -35 30 -35 36 0 45 -20 48 -110 l3 -85 33 -3 32 -3 0 88 c0 48 4 93 8 99 4 6 22 15 39 19 18 3 36 11 39 17 13 20 -22 28 -124 28 -81 0 -104 -3 -108 -15z" fill="#f9f9f9"/>
<path d="M9027 323 c-4 -3 -7 -60 -7 -125 l0 -119 38 3 37 3 3 116 c3 114 2 117 -20 123 -30 8 -43 8 -51 -1z" fill="#f9f9f9"/>
<path d="M9220 323 c-49 -20 -77 -98 -59 -165 17 -62 45 -80 127 -79 63 0 69 2 95 33 22 26 27 42 27 86 0 62 -27 116 -63 126 -27 7 -107 6 -127 -1z m116 -86 c14 -25 13 -32 -3 -65 -19 -40 -48 -51 -82 -32 -31 16 -30 105 1 130 28 22 63 9 84 -33z" fill="#f9f9f9"/>
<path d="M9482 317 c-9 -10 -12 -49 -10 -123 l3 -109 30 0 c30 0 30 1 33 58 2 31 6 57 10 57 9 -1 69 -80 78 -103 5 -14 16 -17 48 -15 l41 3 3 114 c1 64 -2 119 -7 124 -5 5 -21 7 -35 3 -24 -6 -26 -11 -26 -61 l0 -55 -25 12 c-14 6 -25 15 -25 20 0 5 -10 23 -22 41 -13 18 -23 33 -24 34 0 2 -14 5 -30 9 -20 4 -34 1 -42 -9z" fill="#f9f9f9"/>
</g>
</svg>